<svg width="128" height="128" viewBox="0 0 128 128" fill="none" xmlns="http://www.w3.org/2000/svg">
<path d="M25 23.5H101C106.799 23.5 111.5 28.201 111.5 34V95C111.5 100.799 106.799 105.5 101 105.5H25C20.3056 105.5 16.5 101.694 16.5 97V32C16.5 27.3056 20.3056 23.5 25 23.5Z" fill="#E0F2F1" stroke="#004D40" stroke-width="3"/>
<path d="M84.5 54.5H115C116.933 54.5 118.5 56.067 118.5 58V71C118.5 72.933 116.933 74.5 115 74.5H84.5C78.9772 74.5 74.5 70.0228 74.5 64.5C74.5 58.9772 78.9772 54.5 84.5 54.5Z" fill="#B2DFDB" stroke="#004D40" stroke-width="3"/>
<circle cx="86" cy="64" r="4" stroke="#004D40" stroke-width="2"/>
<line x1="17" y1="34.5" x2="111" y2="34.5" stroke="#004D40" stroke-width="3"/>
<line x1="17" y1="94.5" x2="111" y2="94.5" stroke="#004D40" stroke-width="3"/>
<path d="M34.382 67.622C34.7807 67.7087 35.162 67.804 35.526 67.908C35.89 67.9947 36.2453 68.1073 36.592 68.246V69H29.754V68.246C30.1353 68.0727 30.4993 67.9427 30.846 67.856C31.1927 67.7693 31.5393 67.6913 31.886 67.622V52.204C31.4353 52.1173 31.0367 52.022 30.69 51.918C30.3433 51.7967 30.0313 51.6753 29.754 51.554V50.8H32.042C32.7353 50.8 33.4893 50.7653 34.304 50.696C35.136 50.6267 35.942 50.592 36.722 50.592C37.5713 50.592 38.36 50.6873 39.088 50.878C39.8333 51.0687 40.4747 51.372 41.012 51.788C41.5493 52.204 41.9653 52.7327 42.26 53.374C42.572 54.0153 42.728 54.7867 42.728 55.688C42.728 56.9533 42.39 58.002 41.714 58.834C41.0553 59.666 40.154 60.264 39.01 60.628C39.7553 61.8067 40.5353 62.9767 41.35 64.138C42.1647 65.2993 43.014 66.452 43.898 67.596L45.302 68.35V69H42.156L41.168 68.272C40.6827 67.6653 40.2407 67.076 39.842 66.504C39.4433 65.9147 39.0707 65.3253 38.724 64.736C38.3773 64.1293 38.048 63.5227 37.736 62.916C37.4413 62.292 37.138 61.6333 36.826 60.94H34.382V67.622ZM36.15 51.944C35.734 51.944 35.3873 51.9527 35.11 51.97C34.85 51.9873 34.6073 52.022 34.382 52.074V59.848H36.254C37.45 59.848 38.3947 59.4667 39.088 58.704C39.7987 57.9413 40.154 56.936 40.154 55.688C40.154 54.4053 39.7813 53.4607 39.036 52.854C38.2907 52.2473 37.3287 51.944 36.15 51.944ZM52.1327 74.2H46.3607V73.55C46.95 73.2727 47.522 73.0647 48.0767 72.926V57.508L46.3607 57.3V56.624C46.9154 56.3813 47.4787 56.1907 48.0507 56.052C48.64 55.896 49.212 55.7747 49.7667 55.688H50.4167V58.6H50.4427C50.7894 57.716 51.2747 57.014 51.8987 56.494C52.5227 55.9567 53.3374 55.688 54.3427 55.688C55.8854 55.688 57.0814 56.1993 57.9307 57.222C58.78 58.2447 59.2047 59.9087 59.2047 62.214C59.2047 63.306 59.0574 64.294 58.7627 65.178C58.4854 66.062 58.078 66.8073 57.5407 67.414C57.0207 68.0207 56.3794 68.4887 55.6167 68.818C54.8714 69.1473 54.0394 69.312 53.1207 69.312C52.4794 69.312 51.9767 69.2687 51.6127 69.182C51.2487 69.1127 50.85 68.9827 50.4167 68.792V72.926C50.694 72.9607 50.9714 73.0213 51.2487 73.108C51.526 73.212 51.8207 73.3593 52.1327 73.55V74.2ZM53.5107 57.3C52.6614 57.3 51.9854 57.5687 51.4827 58.106C50.98 58.6433 50.6247 59.38 50.4167 60.316V67.596C50.7287 67.7867 51.0754 67.934 51.4567 68.038C51.8554 68.1247 52.3667 68.168 52.9907 68.168C53.5627 68.168 54.074 68.0207 54.5247 67.726C54.9927 67.4313 55.3827 67.0153 55.6947 66.478C56.024 65.9407 56.2754 65.3167 56.4487 64.606C56.622 63.878 56.7087 63.0807 56.7087 62.214C56.7087 61.5033 56.648 60.8533 56.5267 60.264C56.4227 59.6573 56.2407 59.1373 55.9807 58.704C55.738 58.2533 55.4087 57.9067 54.9927 57.664C54.594 57.4213 54.1 57.3 53.5107 57.3Z" fill="#00695C"/>
</svg>
